HIERARCHY
ROOT Hips
{
	OFFSET 0.000000 0.000000 0.000000
	CHANNELS 6 Xposition Yposition Zposition Zrotation Yrotation Xrotation 
	JOINT LHipJoint
	{
		OFFSET 0.000000 0.000000 0.000000
		CHANNELS 3 Zrotation Yrotation Xrotation
		JOINT LeftUpLeg
		{
			OFFSET 1.363060 -1.794630 0.839290
			CHANNELS 3 Zrotation Yrotation Xrotation
			JOINT LeftLeg
			{
				OFFSET 2.448110 -6.726130 0.000000
				CHANNELS 3 Zrotation Yrotation Xrotation
				JOINT LeftFoot
				{
					OFFSET 2.562200 -7.039590 0.000000
					CHANNELS 3 Zrotation Yrotation Xrotation
					JOINT LeftToeBase
					{
						OFFSET 0.157640 -0.433110 2.322550
						CHANNELS 3 Zrotation Yrotation Xrotation
						End Site
						{
							OFFSET 0.000000 0.000000 0.000000
						}
					}
				}
			}
		}
	}
	JOINT RHipJoint
	{
		OFFSET 0.000000 0.000000 0.000000
		CHANNELS 3 Zrotation Yrotation Xrotation
		JOINT RightUpLeg
		{
			OFFSET -1.305520 -1.794630 0.839290
			CHANNELS 3 Zrotation Yrotation Xrotation
			JOINT RightLeg
			{
				OFFSET -2.542530 -6.985550 0.000000
				CHANNELS 3 Zrotation Yrotation Xrotation
				JOINT RightFoot
				{
					OFFSET -2.568260 -7.056230 0.000000
					CHANNELS 3 Zrotation Yrotation Xrotation
					JOINT RightToeBase
					{
						OFFSET -0.164730 -0.452590 2.363150
						CHANNELS 3 Zrotation Yrotation Xrotation
						End Site
						{
							OFFSET 0.000000 0.000000 0.000000
						}
					}
				}
			}
		}
	}
	JOINT LowerBack
	{
		OFFSET 0.000000 0.000000 0.000000
		CHANNELS 3 Zrotation Yrotation Xrotation
		JOINT Spine
		{
			OFFSET 0.028270 2.035590 -0.193380
			CHANNELS 3 Zrotation Yrotation Xrotation
			JOINT Spine1
			{
				OFFSET 0.056720 2.048850 -0.042750
				CHANNELS 3 Zrotation Yrotation Xrotation
				JOINT Neck
				{
					OFFSET 0.000000 0.000000 0.000000
					CHANNELS 3 Zrotation Yrotation Xrotation
					JOINT Neck1
					{
						OFFSET -0.054170 1.746240 0.172020
						CHANNELS 3 Zrotation Yrotation Xrotation
						JOINT Head
						{
							OFFSET 0.104070 1.761360 -0.123970
							CHANNELS 3 Zrotation Yrotation Xrotation
							End Site
							{
								OFFSET 0.000000 0.000000 0.000000
							}
						}
					}
				}
				JOINT LeftShoulder
				{
					OFFSET 0.000000 0.000000 0.000000
					CHANNELS 3 Zrotation Yrotation Xrotation
					JOINT LeftArm
					{
						OFFSET 3.362410 1.200890 -0.311210
						CHANNELS 3 Zrotation Yrotation Xrotation
						JOINT LeftForeArm
						{
							OFFSET 4.983000 -0.000000 -0.000000
							CHANNELS 3 Zrotation Yrotation Xrotation
							JOINT LeftHand
							{
								OFFSET 3.483560 -0.000000 -0.000000
								CHANNELS 3 Zrotation Yrotation Xrotation
								JOINT LeftFingerBase
								{
									OFFSET 0.000000 0.000000 0.000000
									CHANNELS 3 Zrotation Yrotation Xrotation
									JOINT LeftHandIndex1
									{
										OFFSET 0.715260 -0.000000 -0.000000
										CHANNELS 3 Zrotation Yrotation Xrotation
										End Site
										{
											OFFSET 0.000000 0.000000 0.000000
										}
									}
								}
								JOINT LThumb
								{
									OFFSET 0.000000 0.000000 0.000000
									CHANNELS 3 Zrotation Yrotation Xrotation
									End Site
									{
										OFFSET 0.000000 0.000000 0.000000
									}
								}
							}
						}
					}
				}
				JOINT RightShoulder
				{
					OFFSET 0.000000 0.000000 0.000000
					CHANNELS 3 Zrotation Yrotation Xrotation
					JOINT RightArm
					{
						OFFSET -3.136600 1.374050 -0.404650
						CHANNELS 3 Zrotation Yrotation Xrotation
						JOINT RightForeArm
						{
							OFFSET -5.241900 -0.000000 -0.000000
							CHANNELS 3 Zrotation Yrotation Xrotation
							JOINT RightHand
							{
								OFFSET -3.444170 -0.000000 -0.000000
								CHANNELS 3 Zrotation Yrotation Xrotation
								JOINT RightFingerBase
								{
									OFFSET 0.000000 0.000000 0.000000
									CHANNELS 3 Zrotation Yrotation Xrotation
									JOINT RightHandIndex1
									{
										OFFSET -0.622530 -0.000000 -0.000000
										CHANNELS 3 Zrotation Yrotation Xrotation
										End Site
										{
											OFFSET 0.000000 0.000000 0.000000
										}
									}
								}
								JOINT RThumb
								{
									OFFSET 0.000000 0.000000 0.000000
									CHANNELS 3 Zrotation Yrotation Xrotation
									End Site
									{
										OFFSET 0.000000 0.000000 0.000000
									}
								}
							}
						}
					}
				}
			}
		}
	}
}
MOTION
Frames: 8
Frame Time: 0.008333
0.094476 18.090855 -1.780449 2.557795 -7.424158 6.757231 -4.862061 3.884976 4.913454 -14.243875 -6.685359 -19.815860 1.047512 8.086049 26.940413 -1.142362 5.511389 -3.142708 0.142000 -2.429000 -6.692800 -0.613611 -5.367598 3.966707 13.675363 25.647489 -14.862991 -3.000253 -8.757145 31.558182 2.644247 -10.183604 -8.093871 -0.013800 0.759200 -2.086400 1.511337 0.967382 2.752405 -8.786173 0.712578 11.158760 2.987734 0.840540 -9.059312 -10.705770 -6.264071 -13.534475 11.367087 -8.311413 8.129858 4.454100 -3.740300 4.376500 -7.210961 -1.462832 -0.852754 -78.917611 2.452556 11.046511 13.626011 -21.190971 -2.845501 -0.857650 -1.881006 -1.959753 22.003820 23.293060 10.182800 -7.125000 0.000000 0.000000 -7.369800 56.805200 -2.140300 10.798364 1.296245 -1.631886 76.723644 1.724559 23.180330 -14.942241 18.416220 -3.143440 1.689202 0.647625 18.369475 -23.559151 -4.457401 2.623500 7.125000 0.000000 0.000000 1.464300 -36.202700 0.316800
0.101949 18.026352 -1.815271 2.456300 -7.532275 6.560542 -4.674999 3.833472 4.852250 -14.346488 -6.320611 -20.797297 1.423816 8.650956 28.730811 -0.809678 4.539951 -3.632774 0.120877 -2.239457 -6.168052 -0.709177 -5.315421 4.015310 13.823393 25.580080 -15.619871 -3.303956 -9.138992 32.949692 2.358866 -9.485497 -8.508683 -0.016029 0.815801 -2.242067 1.640060 1.006259 3.336981 -8.551362 0.835124 11.740171 2.822574 0.884763 -9.255890 -10.748692 -6.000008 -13.802655 11.384884 -7.856321 7.382315 4.509870 -3.518211 4.181373 -7.174342 -1.481057 -0.891610 -78.911055 2.110954 11.900373 13.974626 -21.706298 -3.003260 -0.865382 -1.900572 -1.965486 22.399091 23.734195 10.551732 -7.125000 0.000000 0.000000 -7.132434 57.367570 -2.168803 10.679684 1.328676 -1.648409 76.575667 2.017984 23.563195 -15.242412 18.895230 -3.327555 1.677778 0.467181 18.346777 -24.445784 -2.554742 1.736226 7.125000 0.000000 0.000000 0.595979 -33.957824 0.161155
0.108584 17.959067 -1.845716 2.453197 -7.478270 6.349395 -4.494304 3.786314 4.790275 -14.553814 -5.985317 -21.725303 1.820177 9.204500 30.529643 -0.499062 3.597026 -3.919649 0.110356 -2.141901 -5.897899 -0.806967 -5.261746 4.066836 13.860687 25.294860 -16.417543 -3.607711 -9.525051 34.329679 2.057583 -8.748104 -8.939405 -0.014152 0.769004 -2.113523 1.666189 0.985834 4.007215 -8.384869 0.871936 12.257750 2.744127 0.892664 -9.501668 -10.550270 -5.748636 -14.077084 11.111212 -7.413616 6.610474 4.463765 -3.308497 3.965355 -7.131153 -1.486022 -0.929020 -78.866038 1.900936 13.032087 14.440581 -22.383772 -3.219376 -0.852716 -1.874762 -2.560154 22.748662 23.060554 10.457790 -7.125000 0.000000 0.000000 -6.452261 56.713023 -1.858173 10.554011 1.361627 -1.659335 76.445019 2.288299 24.013860 -15.584757 19.418466 -3.512151 1.646621 0.527907 18.151659 -24.376605 -2.750871 1.843995 7.125000 0.000000 0.000000 0.697608 -34.221866 0.184518
0.119159 17.893745 -1.869499 2.462292 -7.369643 6.251244 -4.310027 3.731708 4.710737 -14.791176 -5.708137 -22.726085 2.222691 9.730672 32.274480 -0.234261 2.780000 -4.216781 0.127092 -2.296758 -6.326596 -0.905643 -5.199261 4.120912 13.837022 24.782827 -17.437278 -3.925940 -9.928446 35.739919 1.795794 -8.108735 -9.251016 -0.031977 1.145028 -3.148114 1.705310 0.968525 4.519967 -8.157887 0.899253 12.688315 2.663383 0.896669 -9.665578 -10.408727 -5.499668 -14.206750 10.766195 -6.971513 5.848998 4.405033 -3.105369 3.735409 -7.096108 -1.476560 -0.966411 -78.835006 1.786475 14.206884 14.902493 -23.046073 -3.440051 -0.837437 -1.866103 -3.097673 23.026517 22.733188 10.460251 -7.125000 0.000000 0.000000 -6.015850 56.416869 -1.688717 10.422024 1.384983 -1.674519 76.268363 2.391469 24.362683 -15.970160 20.017370 -3.732149 1.615656 0.536138 17.896015 -24.545902 -2.379478 1.674253 7.125000 0.000000 0.000000 0.568545 -33.811595 0.155899
0.129089 17.826822 -1.900448 2.447589 -7.279119 6.334778 -4.126615 3.664407 4.599728 -14.964024 -5.526994 -23.875128 2.611323 10.224758 33.910755 0.011944 2.007054 -4.483584 0.140318 -2.414020 -6.651376 -1.014796 -5.126015 4.157629 13.785941 24.382551 -18.678053 -4.266824 -10.345622 37.211830 1.517241 -7.418892 -9.553293 -0.053513 1.491154 -4.101472 1.809073 0.946992 5.074226 -7.989017 0.919026 12.875064 2.554796 0.902973 -9.907062 -10.294383 -5.171584 -14.270292 10.520328 -6.451184 5.196558 4.376591 -2.859379 3.515180 -7.062979 -1.461469 -0.989292 -78.742108 1.693494 15.485612 15.349432 -23.685030 -3.659611 -0.823711 -1.871005 -3.702450 23.370169 22.643290 10.592112 -7.125000 0.000000 0.000000 -5.603923 56.394713 -1.569046 10.310736 1.393253 -1.683320 76.060828 2.416485 24.916470 -16.357814 20.616539 -3.955505 1.601420 0.573945 17.511106 -24.789303 -2.297646 1.664713 7.125000 0.000000 0.000000 0.381835 -33.759051 0.105350
0.137176 17.755615 -1.929215 2.596970 -7.222306 6.312884 -3.972901 3.609565 4.520015 -15.284334 -5.299172 -24.864770 2.982479 10.663562 35.422688 0.257355 1.213751 -4.753141 0.130495 -2.327709 -6.412326 -1.131782 -5.068415 4.199866 13.589002 23.930048 -19.886240 -4.629244 -10.782001 38.745263 1.232908 -6.727183 -9.952934 -0.076801 1.785658 -4.913687 1.798830 0.936872 5.616984 -7.981009 0.952035 13.223389 2.485440 0.910981 -10.080725 -10.310788 -4.861357 -14.633884 10.505816 -5.962491 4.758676 4.414130 -2.612405 3.401705 -6.996477 -1.483602 -1.010263 -78.600652 1.529414 16.705661 15.865520 -24.413035 -3.918732 -0.813373 -1.890296 -4.295238 23.836009 22.888505 10.925305 -7.125000 0.000000 0.000000 -5.187774 56.764917 -1.498537 10.219084 1.420852 -1.681050 75.832871 2.727719 25.620877 -16.632449 21.020503 -4.114386 1.583380 0.642102 16.893959 -24.751289 -2.538412 1.800614 7.125000 0.000000 0.000000 0.442656 -34.077307 0.118643
0.143299 17.684743 -1.957192 2.868642 -7.101068 6.303653 -3.836809 3.557242 4.450577 -15.722518 -5.054561 -25.795970 3.330802 11.052154 36.805275 0.500402 0.420510 -5.090952 0.144159 -2.447070 -6.742821 -1.245373 -5.019223 4.240902 13.231367 23.491674 -21.103738 -4.997404 -11.218130 40.271517 0.932241 -6.001057 -10.441131 -0.099213 2.030627 -5.590428 1.638293 0.914184 6.116424 -8.018299 0.948238 13.555908 2.520474 0.905062 -10.208882 -10.269460 -4.564635 -14.658915 10.383526 -5.484090 3.979581 4.427133 -2.384620 3.162378 -6.933125 -1.499828 -1.035926 -78.609127 1.326856 17.464967 16.389639 -25.122091 -4.183224 -0.797736 -1.893984 -4.554533 24.038574 22.959973 11.051244 -7.125000 0.000000 0.000000 -5.003693 56.885449 -1.459922 10.126821 1.459003 -1.683176 75.728920 3.010148 25.784529 -16.948708 21.474028 -4.297575 1.558691 0.652387 16.783858 -24.846465 -2.360611 1.720803 7.125000 0.000000 0.000000 0.379221 -33.885727 0.103301
0.148299 17.614920 -1.986166 3.082207 -7.025110 6.261548 -3.696307 3.519232 4.393231 -16.085854 -4.792102 -26.631493 3.667347 11.415013 38.109391 0.758244 -0.438206 -5.423043 0.124976 -2.277355 -6.272788 -1.343232 -4.978315 4.276950 12.949696 23.195565 -22.189151 -5.365895 -11.629356 41.754808 0.666323 -5.369407 -10.932866 -0.133001 2.349737 -6.473220 1.410365 0.909767 6.712136 -7.892535 0.955096 13.844202 2.584513 0.915871 -10.414783 -10.252959 -4.298458 -14.670768 10.171417 -5.049279 3.331258 4.412510 -2.179480 2.951742 -6.889566 -1.497908 -1.058608 -78.676142 1.129117 18.045306 16.849536 -25.733219 -4.421762 -0.776343 -1.877674 -4.673284 23.993821 22.658968 10.892545 -7.125000 0.000000 0.000000 -4.955767 56.542094 -1.405220 10.011861 1.482365 -1.688226 75.510026 3.147815 26.100084 -17.322505 22.029405 -4.523570 1.537381 0.664672 16.609484 -25.054505 -2.136848 1.627686 7.125000 0.000000 0.000000 0.219424 -33.649708 0.061035
